# xmcd
#
# Track frame offsets:
#	150
#	12954
#	28208
#	40556
#	52401
#	65472
#	76860
#	88396
#	100170
#	115883
#	130279
#	142208
#	152564
#	165253
#	178163
#	191201
#	203763
#	215886
#	229459
#	243932
#	259313
#	273937
#	286418
#	297822
#	309941
#	325286
#
# Disc length: 4450 seconds
#
# Revision: 1
# Processed by: cddbd v1.4PL0 Copyright (c) Steve Scherf et al.
# Submitted via: audiograbber 1.82.02
#
DISCID=8b11601a
DTITLE=Lowell Fulson - My First Recordings
DYEAR=1997
DGENRE=Blues
TTITLE0=Western Union Blues
TTITLE1=Lazy Woman Blues
TTITLE2=River Blues, Pt. 1
TTITLE3=River Blues, Pt. 2
TTITLE4=I Walked All Night
TTITLE5=Between Midnight And Day
TTITLE6=The Blues Is Killing Me
TTITLE7=Did You Ever Feel Lucky
TTITLE8=I'm Wild About You
TTITLE9=Three O'Clock Blues
TTITLE10=Crying Blues (Stree Walking Woman)
TTITLE11=You're Gonna Miss Me
TTITLE12=Miss Katy Lee Blues
TTITLE13=Rambling Blues
TTITLE14=Fulson Blues
TTITLE15=San Francisco Blues
TTITLE16=I Want To See My Baby
TTITLE17=Trouble Blues
TTITLE18=Don't Be So Evil
TTITLE19=Black Widow Spider Blues
TTITLE20=I'm Prison Bound
TTITLE21=My Baby Left Me
TTITLE22=Blues With A Feeling
TTITLE23=Why Can't You Cry For Me
TTITLE24=There Is A Time For Everything
TTITLE25=Lowell Jumps One
EXTD=
EXTT0=
EXTT1=
EXTT2=
EXTT3=
EXTT4=
EXTT5=
EXTT6=
EXTT7=
EXTT8=
EXTT9=
EXTT10=
EXTT11=
EXTT12=
EXTT13=
EXTT14=
EXTT15=
EXTT16=
EXTT17=
EXTT18=
EXTT19=
EXTT20=
EXTT21=
EXTT22=
EXTT23=
EXTT24=
EXTT25=
PLAYORDER=
